<?xml version="1.0" standalone="no"?><svg xmlns:xlink="http://www.w3.org/1999/xlink" xmlns="http://www.w3.org/2000/svg" viewBox="0 0 1000 1000" preserveAspectRatio="xMaxYMax slice"><g transform="scale(2.898550724637681)"><rect x="0" y="0" width="345" height="345" fill="#E6E6FA"/><rect x="0" y="0" width="57.5" height="57.5" fill="#c099b3"/><g transform="translate(0,0) scale(2.875) rotate(0)"><path d="M10 0H20L0 20V10L10 0Z" fill="#7b0c32"/><path d="M20 10V20H10L20 10Z" fill="#7b0c32"/></g><rect x="57.5" y="0" width="57.5" height="57.5" fill="#f23a7a"/><g transform="translate(57.5,0) scale(2.875) rotate(0)"><path d="M10 0H20L0 20V10L10 0Z" fill="#e6e4f9"/><path d="M20 10V20H10L20 10Z" fill="#e6e4f9"/></g><rect x="115" y="0" width="57.5" height="57.5" fill="#c8a9c2"/><g transform="translate(115,0) scale(2.875) rotate(0)"><path d="M10 0H20L0 20V10L10 0Z" fill="#d4c2d9"/><path d="M20 10V20H10L20 10Z" fill="#d4c2d9"/></g><rect x="172.5" y="0" width="57.5" height="57.5" fill="#ee6fa2"/><g transform="translate(172.5,0) scale(2.875) rotate(0)"><path d="M10 0H20L0 20V10L10 0Z" fill="#d7c7dd"/><path d="M20 10V20H10L20 10Z" fill="#d7c7dd"/></g><rect x="230" y="0" width="57.5" height="57.5" fill="#dacee3"/><g transform="translate(230,0) scale(2.875) rotate(0)"><path d="M10 0H20L0 20V10L10 0Z" fill="#ec92bc"/><path d="M20 10V20H10L20 10Z" fill="#ec92bc"/></g><rect x="287.5" y="0" width="57.5" height="57.5" fill="#e7d8f0"/><g transform="translate(287.5,0) scale(2.875) rotate(0)"><path d="M10 0H20L0 20V10L10 0Z" fill="#8e3557"/><path d="M20 10V20H10L20 10Z" fill="#8e3557"/></g><rect x="0" y="57.5" width="57.5" height="57.5" fill="#e9b7d7"/><g transform="translate(0,57.5) scale(2.875) rotate(0)"><path d="M10 0H20L0 20V10L10 0Z" fill="#eb98c0"/><path d="M20 10V20H10L20 10Z" fill="#eb98c0"/></g><rect x="57.5" y="57.5" width="57.5" height="57.5" fill="#ef5c94"/><g transform="translate(57.5,57.5) scale(2.875) rotate(0)"><path d="M10 0H20L0 20V10L10 0Z" fill="#821b3f"/><path d="M20 10V20H10L20 10Z" fill="#821b3f"/></g><rect x="115" y="57.5" width="57.5" height="57.5" fill="#a4617f"/><g transform="translate(115,57.5) scale(2.875) rotate(0)"><path d="M10 0H20L0 20V10L10 0Z" fill="#bf97b1"/><path d="M20 10V20H10L20 10Z" fill="#bf97b1"/></g><rect x="172.5" y="57.5" width="57.5" height="57.5" fill="#ed7dac"/><g transform="translate(172.5,57.5) scale(2.875) rotate(0)"><path d="M10 0H20L0 20V10L10 0Z" fill="#b07895"/><path d="M20 10V20H10L20 10Z" fill="#b07895"/></g><rect x="230" y="57.5" width="57.5" height="57.5" fill="#ee6da0"/><g transform="translate(230,57.5) scale(2.875) rotate(0)"><path d="M10 0H20L0 20V10L10 0Z" fill="#872548"/><path d="M20 10V20H10L20 10Z" fill="#872548"/></g><rect x="287.5" y="57.5" width="57.5" height="57.5" fill="#f3276d"/><g transform="translate(287.5,57.5) scale(2.875) rotate(0)"><path d="M10 0H20L0 20V10L10 0Z" fill="#e7ddf4"/><path d="M20 10V20H10L20 10Z" fill="#e7ddf4"/></g><rect x="0" y="115" width="57.5" height="57.5" fill="#c6a4bd"/><g transform="translate(0,115) scale(2.875) rotate(0)"><path d="M10 0H20L0 20V10L10 0Z" fill="#ec8cb7"/><path d="M20 10V20H10L20 10Z" fill="#ec8cb7"/></g><rect x="57.5" y="115" width="57.5" height="57.5" fill="#ed86b3"/><g transform="translate(57.5,115) scale(2.875) rotate(0)"><path d="M10 0H20L0 20V10L10 0Z" fill="#d2bdd4"/><path d="M20 10V20H10L20 10Z" fill="#d2bdd4"/></g><rect x="115" y="115" width="57.5" height="57.5" fill="#f3256b"/><g transform="translate(115,115) scale(2.875) rotate(0)"><path d="M10 0H20L0 20V10L10 0Z" fill="#eaa9cd"/><path d="M20 10V20H10L20 10Z" fill="#eaa9cd"/></g><rect x="172.5" y="115" width="57.5" height="57.5" fill="#831e41"/><g transform="translate(172.5,115) scale(2.875) rotate(0)"><path d="M10 0H20L0 20V10L10 0Z" fill="#a56180"/><path d="M20 10V20H10L20 10Z" fill="#a56180"/></g><rect x="230" y="115" width="57.5" height="57.5" fill="#f23678"/><g transform="translate(230,115) scale(2.875) rotate(0)"><path d="M10 0H20L0 20V10L10 0Z" fill="#e7d1ea"/><path d="M20 10V20H10L20 10Z" fill="#e7d1ea"/></g><rect x="287.5" y="115" width="57.5" height="57.5" fill="#8b2e50"/><g transform="translate(287.5,115) scale(2.875) rotate(0)"><path d="M10 0H20L0 20V10L10 0Z" fill="#ef679c"/><path d="M20 10V20H10L20 10Z" fill="#ef679c"/></g><rect x="0" y="172.5" width="57.5" height="57.5" fill="#f23779"/><g transform="translate(0,172.5) scale(2.875) rotate(0)"><path d="M10 0H20L0 20V10L10 0Z" fill="#811a3e"/><path d="M20 10V20H10L20 10Z" fill="#811a3e"/></g><rect x="57.5" y="172.5" width="57.5" height="57.5" fill="#e7daf1"/><g transform="translate(57.5,172.5) scale(2.875) rotate(0)"><path d="M10 0H20L0 20V10L10 0Z" fill="#a96a88"/><path d="M20 10V20H10L20 10Z" fill="#a96a88"/></g><rect x="115" y="172.5" width="57.5" height="57.5" fill="#9e5473"/><g transform="translate(115,172.5) scale(2.875) rotate(0)"><path d="M10 0H20L0 20V10L10 0Z" fill="#eab2d4"/><path d="M20 10V20H10L20 10Z" fill="#eab2d4"/></g><rect x="172.5" y="172.5" width="57.5" height="57.5" fill="#f04f8a"/><g transform="translate(172.5,172.5) scale(2.875) rotate(0)"><path d="M10 0H20L0 20V10L10 0Z" fill="#89294c"/><path d="M20 10V20H10L20 10Z" fill="#89294c"/></g><rect x="230" y="172.5" width="57.5" height="57.5" fill="#a56281"/><g transform="translate(230,172.5) scale(2.875) rotate(0)"><path d="M10 0H20L0 20V10L10 0Z" fill="#c6a6bf"/><path d="M20 10V20H10L20 10Z" fill="#c6a6bf"/></g><rect x="287.5" y="172.5" width="57.5" height="57.5" fill="#e9b8d8"/><g transform="translate(287.5,172.5) scale(2.875) rotate(0)"><path d="M10 0H20L0 20V10L10 0Z" fill="#b889a5"/><path d="M20 10V20H10L20 10Z" fill="#b889a5"/></g><rect x="0" y="230" width="57.5" height="57.5" fill="#e9b7d7"/><g transform="translate(0,230) scale(2.875) rotate(0)"><path d="M10 0H20L0 20V10L10 0Z" fill="#b37f9b"/><path d="M20 10V20H10L20 10Z" fill="#b37f9b"/></g><rect x="57.5" y="230" width="57.5" height="57.5" fill="#bf97b1"/><g transform="translate(57.5,230) scale(2.875) rotate(0)"><path d="M10 0H20L0 20V10L10 0Z" fill="#ee72a4"/><path d="M20 10V20H10L20 10Z" fill="#ee72a4"/></g><rect x="115" y="230" width="57.5" height="57.5" fill="#bb8faa"/><g transform="translate(115,230) scale(2.875) rotate(0)"><path d="M10 0H20L0 20V10L10 0Z" fill="#ef6198"/><path d="M20 10V20H10L20 10Z" fill="#ef6198"/></g><rect x="172.5" y="230" width="57.5" height="57.5" fill="#e3e0f5"/><g transform="translate(172.5,230) scale(2.875) rotate(0)"><path d="M10 0H20L0 20V10L10 0Z" fill="#e6e6fa"/><path d="M20 10V20H10L20 10Z" fill="#e6e6fa"/></g><rect x="230" y="230" width="57.5" height="57.5" fill="#f14280"/><g transform="translate(230,230) scale(2.875) rotate(0)"><path d="M10 0H20L0 20V10L10 0Z" fill="#bb8ea9"/><path d="M20 10V20H10L20 10Z" fill="#bb8ea9"/></g><rect x="287.5" y="230" width="57.5" height="57.5" fill="#e7d5ee"/><g transform="translate(287.5,230) scale(2.875) rotate(0)"><path d="M10 0H20L0 20V10L10 0Z" fill="#9d5171"/><path d="M20 10V20H10L20 10Z" fill="#9d5171"/></g><rect x="0" y="287.5" width="57.5" height="57.5" fill="#e8c6e2"/><g transform="translate(0,287.5) scale(2.875) rotate(0)"><path d="M10 0H20L0 20V10L10 0Z" fill="#ee6fa2"/><path d="M20 10V20H10L20 10Z" fill="#ee6fa2"/></g><rect x="57.5" y="287.5" width="57.5" height="57.5" fill="#7f1539"/><g transform="translate(57.5,287.5) scale(2.875) rotate(0)"><path d="M10 0H20L0 20V10L10 0Z" fill="#f23577"/><path d="M20 10V20H10L20 10Z" fill="#f23577"/></g><rect x="115" y="287.5" width="57.5" height="57.5" fill="#88274a"/><g transform="translate(115,287.5) scale(2.875) rotate(0)"><path d="M10 0H20L0 20V10L10 0Z" fill="#f0558f"/><path d="M20 10V20H10L20 10Z" fill="#f0558f"/></g><rect x="172.5" y="287.5" width="57.5" height="57.5" fill="#821b3e"/><g transform="translate(172.5,287.5) scale(2.875) rotate(0)"><path d="M10 0H20L0 20V10L10 0Z" fill="#ed83b0"/><path d="M20 10V20H10L20 10Z" fill="#ed83b0"/></g><rect x="230" y="287.5" width="57.5" height="57.5" fill="#eb9dc4"/><g transform="translate(230,287.5) scale(2.875) rotate(0)"><path d="M10 0H20L0 20V10L10 0Z" fill="#b684a0"/><path d="M20 10V20H10L20 10Z" fill="#b684a0"/></g><rect x="287.5" y="287.5" width="57.5" height="57.5" fill="#a25c7b"/><g transform="translate(287.5,287.5) scale(2.875) rotate(0)"><path d="M10 0H20L0 20V10L10 0Z" fill="#a86987"/><path d="M20 10V20H10L20 10Z" fill="#a86987"/></g></g></svg>